<svg width="1396" height="406" viewBox="0 0 1396 406" fill="none" xmlns="http://www.w3.org/2000/svg">
<path d="M1395.98 260.964C1395.81 260.999 1395.47 261.072 1395.3 261.106C1395.17 261.425 1395.06 261.747 1394.97 262.072C1394.79 262.133 1394.43 262.248 1394.25 262.307C1393.92 261.831 1393.79 260.979 1393.08 261.011C1391.52 260.967 1390 261.562 1388.44 261.266C1388.68 259.088 1389.07 256.832 1386.73 256.946C1384.35 256.955 1381.97 256.868 1379.61 257.164C1378.39 257.361 1377.16 256.79 1375.97 257.199C1374.46 257.662 1372.88 257.503 1371.33 257.535C1370.26 257.489 1369.41 258.423 1368.32 258.243C1367.57 258.112 1367.03 258.727 1366.43 259.043C1366.42 259.686 1366.37 260.336 1366.48 260.982C1366.75 261.56 1367.17 262.084 1367.3 262.734C1365.79 262.763 1364.28 262.641 1362.82 263.047C1362.91 263.708 1363.15 264.337 1363.44 264.94C1362.85 265.96 1362.37 265.728 1363.83 266.979C1363.24 267.042 1362.65 267.06 1362.08 267.005C1362.73 267.558 1363.35 268.164 1364.08 268.631C1363.69 268.901 1363.28 269.156 1362.91 269.42C1363.27 269.803 1363.66 270.189 1364.04 270.583C1363.75 270.742 1363.47 270.908 1363.22 271.079C1363.85 271.914 1363.08 272.932 1363.64 273.79C1363.44 274.065 1363.24 274.338 1363.06 274.613C1363.37 274.938 1363.7 275.266 1364.04 275.594C1363.76 275.872 1363.48 276.147 1363.22 276.429C1363.51 276.745 1363.81 277.052 1364.13 277.368C1363.83 277.582 1363.49 277.785 1363.22 278C1363.44 278.485 1363.87 278.786 1364.36 279.007C1363.95 279.25 1363.55 279.502 1363.18 279.758C1363.41 280.172 1363.65 280.593 1363.88 281.027C1363.46 280.961 1363.08 280.891 1362.71 280.819C1363.01 281.253 1363.3 281.706 1363.61 282.161C1364.44 282.32 1365.27 282.514 1366.1 282.743C1365.99 283.004 1365.9 283.271 1365.83 283.544C1365.28 283.083 1364.6 282.949 1363.92 283.016C1363.82 283.384 1363.73 283.755 1363.67 284.13C1363.67 284.13 1347.14 283.932 1343.86 284.176C1344.24 283.288 1343.86 282.483 1343.18 281.894C1342.93 281.889 1335.21 281.857 1334.85 281.935C1334.99 282.651 1335.17 283.361 1335.33 284.08C1334.75 283.625 1334.34 282.59 1333.47 282.854C1332.18 283.158 1330.9 282.593 1329.61 282.755C1322.97 283.384 1322.35 282.49 1320.78 284.083C1320.78 284.083 1314.11 284.131 1311.33 284.011C1309.86 284.121 1308.39 284.59 1306.91 284.312C1305.58 284.089 1304.2 284.399 1302.92 283.941C1301.66 283.522 1301.85 284.115 1294.84 284.208C1284.84 284.196 1287.55 284.465 1284.89 283.28C1284.93 282.727 1284.96 282.172 1285.01 281.625C1284.02 281.12 1282.91 281.407 1281.87 281.297C1281.42 280.746 1281.56 279.975 1281.47 279.325C1279.69 278.531 1277.83 279.433 1275.99 279.299C1274.68 279.418 1273.45 279.009 1272.2 278.748C1271.03 278.882 1269.91 279.296 1268.73 279.363C1267.76 279.363 1267.1 280.195 1266.19 280.366C1266.2 280.656 1266.55 293.277 1266.45 293.628C1266.62 293.912 1266.96 294.176 1266.88 294.565C1266.26 300.087 1266.28 298.67 1262.63 297.914C1263 298.102 1263.38 298.279 1263.79 298.462C1263.32 299.207 1262.66 300.628 1261.64 299.749C1261.28 299.883 1260.93 300.016 1260.61 300.158C1260.24 299.961 1259.89 299.773 1259.55 299.584C1260.06 296.864 1259.58 296.55 1259.46 287.456C1258.9 287.349 1258.36 287.079 1257.8 287.19C1256.06 287.538 1254.27 287.375 1252.51 287.398C1251.32 287.482 1250.55 286.468 1249.78 285.754C1248.68 285.595 1247.19 285.299 1246.59 286.497C1245.32 286.569 1244.04 286.462 1242.79 286.572C1242.45 286.85 1242.42 287.306 1242.29 287.689C1240.77 287.697 1239.25 287.645 1237.74 287.75C1237.93 288.635 1238.35 294.252 1238.07 295.561C1233.56 293.952 1236.96 295.96 1231.94 296.118C1231.43 296.068 1230.8 296.239 1230.53 295.717C1230.16 292.269 1229.41 252.845 1229.04 251.153C1218.88 251.025 1224.24 250.885 1220.33 250.393C1218.74 250.7 1217.15 251.069 1215.54 251.115C1215.12 250.935 1215.15 250.384 1214.98 250.042C1214.23 249.949 1213.48 249.755 1212.74 249.906C1210.86 250.168 1201.59 250.064 1201.3 250.089C1201.31 250.459 1201.32 250.828 1201.36 251.208C1200.92 251.135 1200.46 251.071 1200.12 250.787C1198.96 249.79 1197.52 250.973 1196.27 251.115C1195.98 251.113 1190.11 252.456 1187.31 252.336C1186.24 254.785 1188.77 279.071 1188.44 293.728C1187.82 293.853 1187.21 293.986 1186.6 294.07C1184.38 289.046 1185.46 249.268 1183.72 245.472C1180.65 245.304 1177.58 245.368 1174.52 245.347C1173.43 245.252 1172.56 246.119 1171.47 245.953C1171.48 245.443 1171.5 244.933 1171.46 244.428C1172.37 244.156 1173.36 244.231 1174.27 243.892C1173.6 239.554 1174.46 238.563 1173.26 237.235C1172.23 237.467 1171.19 237.568 1170.15 237.516C1170.14 237.197 1170.15 236.881 1170.17 236.568C1170.46 236.557 1170.76 236.548 1171.07 236.542C1169.9 235.156 1170.06 235.972 1170.19 233.562C1169.62 233.034 1169.33 232.341 1169.07 231.642C1168.44 231.036 1167.86 231.839 1167.44 232.254C1166.24 232.451 1165.31 231.286 1164.11 231.393C1163.34 231.265 1162.74 231.814 1162.06 232.045C1161.48 231.886 1161.01 231.303 1160.38 231.457C1158.79 231.75 1157.22 232.393 1155.58 232.202C1154.46 232.039 1153.71 233.127 1152.79 233.568C1152.77 235.006 1152.7 236.444 1152.63 237.882C1151.42 238.001 1150.27 238.363 1149.08 238.52C1148.85 240.126 1149.17 241.738 1149.16 243.351C1149.21 243.811 1149.03 244.597 1149.7 244.681C1150.46 244.794 1151.25 244.809 1152 245.064C1151.85 245.259 1151.71 245.456 1151.59 245.653C1151.78 245.838 1151.99 246.027 1152.21 246.221C1151.9 246.517 1151.65 246.856 1151.3 247.083C1150.66 247.048 1150.08 246.712 1149.46 246.622C1148.24 246.399 1146.97 246.404 1145.81 245.938C1145.25 245.616 1144.66 246.016 1144.1 246.077C1143.4 246.103 1142.73 246.036 1142.06 246.059C1142.73 246.222 1143.64 245.94 1144.12 246.579C1141.04 246.306 1137.99 246.941 1134.92 246.979C1133.85 246.959 1132.84 247.289 1131.88 247.713C1131.97 247.194 1132.23 246.747 1132.64 246.411C1131.64 246.822 1130.54 246.909 1129.49 247.121C1129.45 247.387 1129.43 247.657 1129.43 247.927C1128.9 247.797 1128.38 247.649 1127.88 247.501C1126.98 248.736 1125.38 248.376 1124.12 248.878C1124.16 249.844 1124.47 250.841 1124.18 251.795C1123.65 252.313 1122.94 252.598 1122.3 252.937C1122.32 253.873 1122.93 255.036 1122.06 255.767C1121.29 256.39 1120.29 256.761 1119.29 256.662C1119.28 255.534 1119.43 254.285 1118.61 253.383C1118.78 253.012 1118.97 252.647 1119.18 252.281C1118.78 251.898 1118.37 251.539 1117.97 251.191C1118.12 250.944 1118.29 250.704 1118.47 250.466C1118.25 250.124 1118.05 249.785 1117.87 249.445C1118.53 248.448 1117.77 247.283 1118.26 246.227C1117.13 245.015 1115.45 245.43 1114.01 245.584C1113.99 245.024 1114 244.467 1114.02 243.917C1112.55 242.638 1110.46 243.313 1108.8 243.757C1108.61 243.34 1108.44 242.922 1108.29 242.511C1106.99 242.577 1105.69 242.719 1104.42 242.449C1103.6 207.268 1102.91 209.336 1103.84 207.705C1102.37 207.188 1087.41 203.996 1085.86 204.177C1083.61 208.921 1082.03 220.023 1081.4 221.347C1077.92 258.963 1085.09 247.295 1073.96 250.893C1073.96 252.017 1073.95 253.145 1073.93 254.273C1072.9 254.505 1071.86 254.659 1070.89 255.039C1070.94 255.475 1071.3 276.046 1071.31 276.117C1070.52 276.103 1069.75 276.025 1069.01 275.801C1069.19 275.433 1069.4 275.077 1069.61 274.72C1069.32 274.409 1069.03 274.12 1068.8 273.777C1068.89 273.377 1069.33 273.195 1069.61 272.911C1069.28 272.528 1068.96 272.145 1068.66 271.756C1068.86 271.44 1069.08 271.13 1069.32 270.823C1069 270.443 1068.69 270.063 1068.4 269.68C1068.69 269.402 1069 269.135 1069.32 268.871C1068.99 268.494 1068.68 268.115 1068.39 267.732C1068.61 267.422 1068.84 267.117 1069.08 266.813C1068.84 266.502 1068.6 266.198 1068.39 265.896C1068.57 265.517 1068.78 265.149 1069 264.783C1068.8 264.488 1068.58 264.206 1068.46 263.884C1068.5 263.423 1068.86 263.093 1069.1 262.719C1068.75 262.408 1068.41 262.104 1068.08 261.8C1068.38 261.498 1068.69 261.205 1069.02 260.918C1068.73 260.55 1068.43 260.19 1068.14 259.831C1068.39 259.486 1068.65 259.15 1068.92 258.808C1068.63 258.474 1068.35 258.141 1068.08 257.81C1068.34 257.482 1068.63 257.166 1068.91 256.851C1068.62 256.52 1068.32 256.196 1068.05 255.87C1068.29 255.551 1068.54 255.238 1068.8 254.925C1068.47 254.54 1068.14 254.157 1067.84 253.774C1068.14 253.475 1068.46 253.183 1068.79 252.89C1068.45 252.594 1068.11 252.304 1067.79 252.011C1067.99 251.614 1068.2 251.229 1068.43 250.846C1068.3 250.477 1068.19 250.112 1068.09 249.75C1068.23 249.472 1068.39 249.202 1068.56 248.929C1068.3 248.547 1068.06 248.158 1067.85 247.764C1068.1 247.486 1068.38 247.216 1068.65 246.937C1068.35 246.587 1068.05 246.236 1067.79 245.885C1068.14 245.731 1068.52 245.586 1068.91 245.444C1068.61 244.78 1068.12 244.249 1067.54 243.84C1067.85 243.568 1068.17 243.307 1068.51 243.049C1068.18 242.655 1067.85 242.269 1067.53 241.881C1067.83 241.602 1068.15 241.332 1068.47 241.063C1067.55 239.214 1067.92 241.113 1068.4 237.807C1068.09 237.891 1067.79 237.978 1067.5 238.068C1068.15 237.311 1068.72 236.366 1069.81 236.236C1069.89 236.053 1069.98 235.873 1070.09 235.696C1069.11 235.562 1068.48 234.844 1067.94 234.098C1068.13 233.803 1068.4 233.539 1068.5 233.185C1068.34 232.71 1067.77 232.493 1067.65 232.02C1067.88 231.695 1068.18 231.425 1068.48 231.144C1068.2 230.849 1067.9 230.576 1067.69 230.243C1067.64 229.715 1068.3 229.634 1068.62 229.335C1068.24 228.81 1067.73 228.416 1067.25 228.01C1067.65 227.726 1068.07 227.448 1068.48 227.155C1068.13 226.836 1067.79 226.52 1067.46 226.201C1067.73 225.833 1068.14 225.528 1068.23 225.05C1068 224.65 1067.64 224.363 1067.34 224.043C1067.6 223.652 1067.9 223.292 1068.24 222.953C1067.92 222.553 1067.59 222.176 1067.26 221.814C1067.53 221.454 1067.81 221.103 1068.11 220.753C1067.83 220.431 1067.48 220.155 1067.32 219.77C1067.25 219.228 1067.64 218.772 1067.83 218.291C1067.1 218.135 1066.35 218.045 1065.62 217.972C1065.76 216.441 1065.23 214.739 1066.13 213.368C1062.71 212.603 1063.67 211.997 1061.37 212.356C1060.67 213.174 1059.54 212.834 1058.62 212.883C1058.37 212.069 1058.33 211.213 1058.15 210.393C1057.27 209.703 1056.12 210.404 1055.15 210.486C1054.24 210.228 1053.58 209.488 1052.73 209.126C1052.15 209.097 1051.59 209.265 1051.05 209.378C1050.29 209.375 1050.25 210.343 1049.63 210.57C1049.34 210.699 1045.92 213.336 1042.61 212.353C1039.03 212.283 1035.35 211.985 1031.91 213.176C1031.92 214.032 1031.92 214.89 1031.93 215.748C1032.47 215.795 1033.09 215.658 1033.57 216.044C1030.09 216.359 1029.41 214.881 1028.21 217.001C1028.37 218.607 1028.55 220.436 1027.51 221.805C1027.18 222.237 1027 222.883 1026.4 222.999C1025.76 223.205 1025.06 223.518 1024.8 224.188C1024.92 225.934 1025.05 227.705 1024.81 229.448C1024.47 229.929 1024.02 230.327 1023.68 230.808C1023.88 231.118 1024.1 231.431 1024.34 231.744C1023.63 232.788 1023.72 234.049 1023.72 235.253C1024.16 235.433 1024.6 235.615 1025.05 235.821C1024.66 236.059 1024.28 236.291 1023.91 236.534C1023.89 237.726 1023.76 238.93 1024.02 240.112C1021.93 240.251 1019.84 240.37 1017.76 240.159C1017.85 238.549 1018 232.454 1016.82 230.953C1016.32 229.158 1016.71 227.253 1016.52 225.421C1016.16 224.678 1015.29 224.484 1014.56 224.386C1014.28 223.634 1014.33 222.829 1014.44 222.051C1014.63 220.738 1014.24 219.445 1014.2 218.137C1013.54 217.963 1012.89 217.818 1012.24 217.711C1012.2 215.629 1012.33 213.539 1011.86 211.492C1011.27 211.321 1010.68 211.155 1010.1 210.996C1010.11 210.57 1010.13 210.144 1010.17 209.72C1009.12 209.326 1008.03 208.874 1006.89 209.016C1004.65 209.235 1000.02 208.772 998.149 210.103C997.859 210.605 997.673 211.161 997.346 211.639C996.253 212.376 995.091 211.393 994.004 211.149C994.074 210.746 994.154 210.347 994.244 209.949C992.699 209.291 990.94 209.581 989.308 209.381C988.34 209.195 987.415 209.592 986.473 209.636C985.412 208.905 984.131 208.575 983.142 207.743C983.279 207.601 983.548 207.313 983.684 207.171C983.38 206.852 983.078 206.536 982.789 206.226C982.96 204.97 982.606 203.718 982.638 202.46C982.679 201.915 982.279 201.355 981.722 201.344C981.006 201.257 980.383 200.923 979.768 200.599C979.725 199.274 979.774 197.946 979.739 196.623C979.521 193.541 977.843 194.604 977.444 194.64C976.774 194.892 976.078 194.765 975.412 194.625C973.545 194.211 971.6 194.26 969.713 194.451C968.678 195.159 967.406 194.75 966.27 195.017C965.878 195.841 965.701 196.783 964.771 197.168C964.606 196.957 964.458 196.745 964.328 196.531C963.94 192.718 964.139 188.879 964.11 185.052C961.53 184.064 954.843 184.332 952.324 183.22C949.608 182.045 946.307 182.426 943.826 183.947C939.757 188.3 940.61 189.25 940.289 192.245C939.956 193.043 939.475 193.768 939.078 194.533C939.872 194.545 940.695 194.652 941.234 195.31C939.174 196.438 937.006 197.514 934.686 197.949C933.93 199.796 932.272 201.008 930.672 202.081C931.083 202.66 930.733 203.284 930.504 203.861C930.136 203.461 929.831 203.023 929.579 202.562C928.246 202.728 926.915 202.936 925.573 202.852C924.666 202.76 924.289 203.876 923.449 204.015C922.68 204.169 922.014 204.586 921.344 204.961C920.309 205.062 919.411 204.355 918.428 204.149C918.349 204.671 918.28 205.196 918.216 205.723C916.436 205.016 915.239 203.398 913.593 202.473C913.152 202.322 912.694 202.482 912.269 202.493C911.913 207.964 912.748 216.095 912.385 219.78C912.185 220.064 911.808 220.017 911.53 220.087C911.367 219.701 911.223 219.324 911.075 218.947C909.927 219.478 908.762 219.968 907.625 220.51C907.422 221.817 907.585 223.131 907.759 224.43C907.066 225.703 907.388 227.17 907.579 228.53C906.039 229.252 904.294 229.249 902.683 229.718C902.329 228.768 901.909 227.837 901.703 226.842C902.529 226.807 903.364 226.799 904.204 226.761C903.973 225.897 902.854 226.056 902.173 225.839C901.958 225.491 901.752 225.155 901.549 224.821C901.891 224.491 902.242 224.16 902.599 223.83C902.326 223.479 902.056 223.131 901.799 222.786C902.306 222.209 902.326 221.469 902.146 220.759C902.961 220.741 903.79 220.704 904.584 220.443C904.059 219.59 902.885 219.747 902.053 219.428C902.873 217.462 902.889 218.157 902.038 216.596C902.404 216.314 902.777 216.036 903.155 215.755C903.192 215.016 903.245 214.238 902.859 213.577C901.92 212.832 901.201 211.757 899.966 211.493C899.18 207.704 899.21 213.51 899.706 204.024C898.755 203.713 897.833 203.351 896.917 202.971C894.442 204.606 894.164 203.274 891.071 203.826C888.316 203.264 889.015 203.95 881.157 203.803C881.045 203.658 880.937 203.524 880.838 203.397C879.612 203.533 878.38 203.574 877.154 203.545C877.302 201.318 876.737 198.978 877.58 196.847C878.082 195.595 877.058 194.438 877.137 193.185C877.252 186.954 876.796 188.362 876.554 179.256C874.743 179.233 872.934 179.259 871.128 179.253C871.166 179.108 871.235 178.815 871.273 178.671C870.632 178.662 869.998 178.656 869.374 178.653C869.195 178.303 869.035 177.955 868.885 177.607C868.743 177.578 868.455 177.52 868.314 177.49C868.801 177.003 868.838 176.345 868.221 175.945C867.841 176.325 867.583 176.966 866.966 176.939C865.899 177.267 864.766 176.53 863.803 177.264C863.637 176.921 863.057 158.651 863.189 156.437C862.98 156.232 862.783 156.028 862.6 155.825C862.215 156.002 861.835 156.179 861.467 156.353C861.169 154.689 861.575 152.975 861.163 151.337C859.123 151.218 860.701 153.809 860.215 157.376C860.03 158.727 860.511 160.047 860.462 161.398C860.782 167.286 860.448 165.914 860.624 175.703C860.247 175.747 859.885 175.793 859.531 175.84C859.415 176.307 859.34 176.785 859.146 177.226C858.424 177.347 858.633 176.44 858.456 176.011C855.183 176.592 857.119 177.632 853.337 175.95C852.74 176.712 852.389 177.603 852.262 178.559C850.485 180.367 849.101 177.484 845.143 179.252C845.462 179.446 845.8 179.641 846.146 179.835C845.737 180.342 845.36 180.873 845.093 181.461C844.798 181.522 844.513 181.586 844.241 181.65C843.69 184.297 845.413 182.673 844.119 184.851C844.305 185.931 844.346 192.898 844.464 193.708C845.202 197.755 843.835 201.866 845.476 202.685C844.731 203.998 845.027 205.66 845.424 207.051C842.404 207.63 845.187 206.509 841.252 208.884C841.195 209.243 841.148 209.606 841.111 209.968C826.493 210.273 834.401 209.717 828.287 209.6C828.009 209.199 827.742 208.791 827.484 208.391C827.03 208.886 826.574 209.423 825.887 209.565C825.389 212.421 826.203 215.28 825.948 218.142C825.864 219.27 825.375 220.365 825.638 221.511C825.38 221.786 825.134 222.071 824.905 222.36C825.206 222.789 825.504 223.239 825.762 223.711C825.409 223.92 825.07 224.137 824.745 224.366C825.133 224.682 825.542 224.999 825.939 225.332C825.626 225.691 825.322 226.048 825.023 226.408C825.292 226.747 825.568 227.098 825.832 227.457C825.095 227.585 824.318 227.677 823.721 228.15C822.183 229.038 824.034 236.421 822.661 242.293C821.834 242.423 821.002 242.493 820.185 242.597C820.204 243.896 820.876 266.734 820.614 269.069C820.281 269.246 819.962 269.423 819.649 269.6C819.603 270.081 819.539 270.562 819.461 271.041C818.487 270.884 817.504 270.861 816.53 270.829C816.162 268.538 816.106 254.349 816.087 254.059C815.246 253.801 814.373 253.72 813.507 253.702C813.214 253.294 812.896 252.919 812.553 252.571C813.229 251.771 812.785 250.861 812.6 249.982C812.6 249.98 812.056 243.53 812.591 240.719C811.927 240.183 811.231 239.397 810.295 239.64C809.455 239.808 808.68 239.365 807.875 239.278C807.359 239.38 806.91 239.684 806.399 239.734C794.611 239.999 802.807 240.926 796.831 239.58C797.034 239.4 797.245 239.223 797.472 239.049C796.648 238.162 796.95 236.886 796.86 235.79C796.86 235.79 796.5 202.299 796.5 202.299C796.48 201.168 796.025 200.084 796.173 198.944C795.868 197.883 796.369 196.837 796.068 195.772C796.187 195.065 796.251 194.352 795.758 193.766C795.932 193.743 796.277 193.702 796.448 193.68C795.819 191.519 796.402 189.269 795.99 187.089C795.781 185.761 796.5 184.222 795.494 183.109C795.746 182.961 796.007 182.813 796.277 182.668C796.028 182.372 795.787 182.082 795.549 181.795C796.584 180.296 795.364 178.525 795.955 176.947C794.997 175.42 795.566 175.759 796.025 174.836C795.758 174.613 795.5 174.395 795.248 174.184C795.367 173.787 795.488 173.389 795.613 172.995C795.271 172.925 794.937 172.859 794.616 172.798C794.352 172.247 794.094 171.699 793.859 171.143C794.663 170.742 795.471 170.345 796.265 169.916C796.268 169.731 796.271 169.359 796.274 169.174C794.022 168.675 791.711 168.82 789.43 168.742C788.912 168.426 788.317 167.994 787.726 168.396C786.529 169.08 785.126 168.687 783.836 168.866C782.387 169.211 780.94 168.631 779.482 168.831C779.65 169.136 779.833 169.434 780.027 169.736C778.926 169.56 778.515 168.913 776.299 170.185C775.96 170.562 775.685 170.988 775.392 171.397C776.601 171.89 777.89 171.908 779.163 171.69C779.154 172.044 779.152 172.397 779.16 172.757C778.062 172.748 777.561 173.751 776.917 174.459C777.381 174.54 777.859 174.592 778.349 174.639C777.935 174.938 777.534 175.242 777.146 175.558C777.068 176.741 777.181 177.941 776.946 179.113C777.172 179.284 777.41 179.461 777.651 179.64C777.404 180.257 777.12 180.858 776.816 181.449C777.175 181.557 777.54 181.672 777.917 181.797C777.595 182.015 777.282 182.235 776.978 182.458C777.187 182.586 777.41 182.714 777.642 182.844C777.317 183.073 777.161 183.418 777.045 183.778C777.306 183.833 777.827 183.949 778.088 184.007C777.767 184.436 777.439 184.856 777.126 185.285C777.43 185.715 777.749 186.135 778.088 186.553C777.773 186.941 777.451 187.321 777.117 187.689C777.395 188.023 777.685 188.359 777.975 188.698C777.659 189.02 777.34 189.331 777.094 189.699C777.23 190.426 778.154 190.111 778.688 190.293C778.378 191.096 777.129 191.003 777.042 191.949C777.685 191.992 778.338 192.021 778.999 192.082C778.428 192.535 777.796 192.894 777.213 193.317C776.859 193.964 777.822 194.294 778.173 194.683C778.014 195.147 777.709 195.516 777.332 195.814C777.48 195.915 777.773 196.118 777.92 196.22C777.72 196.669 777.503 197.11 777.233 197.522C777.868 198.423 777.141 199.583 777.81 200.468C777.694 200.792 777.465 201.109 777.523 201.468C777.712 201.805 778.15 202.022 778.213 202.425C778.051 202.776 777.813 203.08 777.605 203.396C777.741 203.738 777.88 204.078 778.028 204.426C777.837 204.736 777.66 205.052 777.492 205.368C777.686 205.67 777.895 205.974 778.109 206.278C777.92 206.638 777.746 207.001 777.587 207.372C778.016 208.085 777.903 208.894 777.7 209.662C777.883 209.882 778.08 210.105 778.286 210.332C778.028 210.642 777.779 210.953 777.538 211.268C777.738 211.686 777.953 212.101 778.176 212.518C777.956 212.732 777.747 212.95 777.547 213.17C777.854 213.904 777.871 214.693 777.692 215.467C778.098 215.615 778.498 215.76 778.921 215.919C778.53 216.397 778.089 216.829 777.657 217.261C778.06 217.56 778.475 217.859 778.889 218.169C778.536 218.468 778.179 218.755 777.828 219.048C777.848 219.195 777.889 219.494 777.909 219.642C778.315 219.744 778.729 219.839 779.158 219.944C778.758 220.402 777.686 220.704 778.042 221.443C778.393 221.646 779.042 221.556 779.141 222.072C778.755 222.411 778.338 222.707 777.938 223.017C778.228 223.304 778.532 223.597 778.839 223.89C778.199 224.626 778.634 225.557 778.469 226.409C778.251 227.224 778.738 228.016 778.526 228.839C778.639 229.914 778.074 231.1 778.842 232.028C778.584 232.35 778.338 232.672 778.097 232.999C778.791 233.693 779.26 233.25 778.129 235.119C778.364 235.409 778.607 235.705 778.853 236.003C778.657 236.29 778.236 236.548 778.375 236.951C778.523 238.384 778.825 239.854 778.485 241.277C778.681 247.489 778.503 250.294 778.503 250.294C777.862 250.268 777.167 250.355 776.654 249.915C775.964 249.358 775.045 249.108 774.538 248.358C774.842 248.088 775.161 247.827 775.486 247.564C775.112 247.143 774.572 246.894 774.257 246.447C774.042 245.76 774.08 245.038 774.1 244.333C773.694 244.133 773.291 243.948 772.891 243.777C772.935 243.118 772.856 242.46 772.798 241.811C773.169 241.724 773.572 241.648 773.961 241.559C773.581 241.498 773.21 241.44 772.851 241.387C772.837 240.526 772.847 238.371 772.074 238.271C770.488 237.896 768.938 237.363 767.297 237.294C767.149 235.675 766.372 195.991 766.372 195.991C766.456 194.82 766.508 193.582 765.931 192.518C765.206 192.129 764.259 192.364 763.484 192.042C763.722 191.57 763.957 191.091 764.174 190.604C765.166 190.325 766.206 190.163 767.111 189.629C765.981 188.331 761.052 189.39 758.192 188.055C756.592 187.667 750.802 188.517 748.136 189.781C748.142 189.952 748.151 190.294 748.156 190.465C749.029 190.717 750.043 190.969 750.42 191.908C749.678 192.178 748.785 192.364 748.324 193.054C748.591 193.112 749.124 193.225 749.391 193.28C748.947 193.672 748.481 194.028 748.017 194.382C748.246 194.849 748.64 195.188 749.069 195.487C748.651 195.487 748.242 195.493 747.843 195.498C748.395 196.668 748.542 200.719 748.506 201.134C748.75 201.302 749.002 201.474 749.263 201.648C748.874 201.946 748.486 202.248 748.115 202.552C748.338 203.245 748.839 203.752 749.506 204.045C749.109 204.364 748.712 204.686 748.341 205.022C748.608 205.382 748.901 205.738 749.199 206.092C749.016 206.402 748.848 206.715 748.697 207.037C748.903 207.434 749.112 207.84 749.326 208.249C749.086 208.556 748.86 208.867 748.639 209.18C749.06 209.385 749.483 209.609 749.903 209.838C749.463 210.209 749.022 210.581 748.639 211.004C748.845 211.065 749.263 211.189 749.468 211.253C749.173 212.256 749.097 213.297 749.132 214.341C748.952 215.037 748.787 215.759 749.262 216.388C749.062 216.736 748.865 217.084 748.688 217.443C749.169 217.734 749.665 218.018 750.202 218.235C749.813 218.383 749.431 218.531 749.065 218.699C749.358 219.6 749.425 220.609 748.715 221.343C748.973 221.688 749.245 222.033 749.529 222.378C749.135 222.784 748.75 223.199 748.37 223.61C748.61 223.964 748.872 224.321 749.159 224.657C749.054 224.765 748.84 224.982 748.733 225.089C749.367 228.285 748.933 243.178 748.959 244.371C747.353 244.339 745.744 244.368 744.162 244.617C744.087 245.62 744.089 246.632 744.237 247.63C743.895 247.659 743.561 247.691 743.237 247.725C743.391 248.435 743.495 249.157 743.521 249.891C743.019 249.943 742.527 249.995 742.045 250.05C742.225 251.692 741.518 253.26 741.689 254.901C742.063 256.058 741.466 257.279 742.089 258.398C741.454 258.592 740.521 259.001 740.071 258.308C739.662 255.222 740.221 249.116 739.996 240.801C739.547 240.358 738.868 240.294 738.321 240.047C738.295 239.067 738.297 238.084 738.251 237.107C736.88 238.572 737.663 238.977 737.953 240.166C735.718 240.712 727.852 240.162 716.279 240.453C713.516 240.285 715.346 247.765 714.671 255.379C713.534 255.774 712.34 255.916 711.189 256.226C711.436 256.647 711.703 257.07 711.955 257.505C711.386 257.606 710.83 257.789 710.256 257.736C708.937 257.499 707.731 258.325 706.418 258.27C704.627 258.206 702.838 258.131 701.053 258.061C701.349 252.349 700.602 238.189 700.873 235.306C700.736 235.178 700.464 234.92 700.328 234.793C700.308 235.498 700.305 236.205 700.293 236.912C700.159 236.918 699.89 236.927 699.757 236.933C699.56 228.734 700.221 231.75 698.905 228.776C699.554 229.043 700.218 229.301 700.908 229.484C700.403 228.586 699.597 228.735 700.317 224.796C699.94 224.747 699.574 224.703 699.215 224.668C698.902 223.23 698.844 221.766 698.821 220.302C696.446 219.517 698.207 219.206 692.783 218.959V219.539C693.922 219.597 695.273 219.272 696.154 220.209C693.797 220.537 691.389 220.197 689.061 220.676C688.742 220.479 688.513 220.041 688.111 220.096C685.189 220.162 686.018 220.452 685.902 224.46C685.569 224.927 684.887 224.967 684.412 225.222C684.218 226.507 683.832 227.93 684.606 229.108C684.261 229.125 683.928 229.145 683.603 229.169C682.598 230.343 682.881 231.952 682.942 233.373C683.235 233.582 683.545 233.794 683.858 234.005C683.331 234.428 683.099 235.058 682.89 235.675C683.215 235.902 683.554 236.131 683.896 236.363C683.574 236.684 683.258 237.004 682.948 237.325C682.861 241.763 683.256 256.969 683.206 263.322C678.969 263.377 674.728 263.27 670.493 263.368C670.435 270.892 670.713 278.408 670.713 285.934C669.849 285.94 669 285.798 668.145 285.76C667.107 285.848 666.069 285.949 665.032 285.928C664.263 285.064 664.556 283.974 664.681 282.953C664.64 282.663 663.243 233.815 664.159 231.202C664.695 229.738 663.657 228.302 663.796 226.812C663.701 225.884 664.069 224.791 663.414 224.013C662.915 223.405 662.385 222.825 661.944 222.178C661.779 222.172 661.451 222.158 661.286 222.152C661.167 223.526 660.915 224.892 660.599 226.237C659.857 226.22 659.123 226.214 658.393 226.211C658.149 225.878 657.915 225.544 657.686 225.217C657.503 225.254 657.132 225.333 656.949 225.373C656.894 225.591 656.784 226.026 656.729 226.246C655.63 226.008 654.517 226.026 653.425 226.249C653.245 225.892 653.085 225.539 652.938 225.182C652.404 225.234 651.874 225.292 651.358 225.359C650.801 224.671 650.894 223.802 651.166 223.027C650.885 223.021 650.616 223.019 650.352 223.019C650.456 223.607 650.653 224.26 650.189 224.755C648.578 226.649 649.173 225.953 645.331 226.252C644.951 225.791 644.528 225.353 643.922 225.26C643.861 225.518 643.74 226.037 643.679 226.298C643.027 226.173 642.436 225.875 641.807 225.709C641.267 225.938 640.784 226.269 640.288 226.571C640.179 227.322 640.387 240.777 640.398 241.071C639.485 241.123 638.618 240.346 637.746 240.766C636.45 241.285 634.925 241.341 633.656 240.737C632.209 241.488 629.516 241.594 628.325 240.731C627.85 241.071 627.296 241.294 626.711 241.218C625.572 241.123 624.267 241.407 623.314 240.639C623.009 240.874 622.728 241.201 622.313 241.166C621.198 241.206 620.075 241.294 618.968 241.163C618.618 240.96 618.345 240.665 618.055 240.409C617.989 240.601 617.855 240.987 617.791 241.178C615.768 241.297 613.744 241.277 611.724 241.271C611.559 240.778 611.643 240.053 611.058 239.85C609.183 241.87 610.712 250.211 610.399 258.334C609.663 258.354 608.93 258.365 608.202 258.328C607.959 258.548 607.724 258.774 607.495 259C606.753 258.977 606.014 258.965 605.283 258.948C604.946 256.48 605.111 219.777 604.486 215.781C604.64 214.445 604.538 213.099 604.643 211.759C598.024 211.55 590.41 212.04 588.755 211.394C587.706 211.116 586.688 210.678 585.61 210.57C585.216 210.848 585.378 211.324 585.392 211.727C583.804 211.724 582.213 211.695 580.627 211.751C580.592 212.498 580.587 213.249 580.581 214.003C580.706 214.119 580.955 214.349 581.079 214.464C579.331 215.46 580.562 218.159 579.511 221.307C579.682 222.193 580.337 277.999 579.914 279.278C580.061 281.195 580.114 283.12 579.98 285.042C559.038 285.332 567.338 284.156 560.356 286.895C560.312 287.35 560.278 287.808 560.252 288.272C558.991 288.493 557.661 288.206 556.463 288.733C555.368 288.962 554.234 288.887 553.127 288.919C553.023 288.385 553.188 287.75 552.86 287.298C552.396 287.084 551.875 287.069 551.391 286.97C551.097 281.157 551.832 271.919 550.73 263.117C550.517 262.762 546.508 256.335 545.909 256.712C544.361 258.423 543.355 260.562 541.825 262.273C540.381 250.182 535.311 138.985 535.741 131.479C537.987 131.389 540.335 131.242 542.37 130.195C544.035 128.256 543.491 126.721 541.616 125.013C542.298 124.158 543.159 123.471 543.93 122.697C543.498 120.542 544.376 118.458 544.562 116.333C544.266 116.097 543.889 113.024 542.858 112.354C542.234 111.888 541.536 111.543 540.89 111.125C540.42 110.305 540.895 109.107 539.991 108.53C539.231 107.634 537.976 108.023 536.968 107.808C534.85 106.445 535.744 103.972 535.585 99.971C533.381 99.8821 533.948 99.1577 533.938 78.0572C533.831 62.6409 533.186 68.5177 535.339 62.6022C535.401 62.4326 533.769 60.3386 533.565 60.1618C532.199 58.7436 533.121 60.1771 532.965 53.3943C533.189 51.6952 532.812 50.0049 532.743 48.3096C532.675 46.6661 532.819 45.0101 532.818 43.3623C532.818 43.3617 532.121 28.9278 532.121 28.9278C531.556 24.1693 531.092 31.5346 530.986 15.1103C530.903 2.4944 531.396 -0.271618 529.362 0.0202022C529.023 2.67822 529.507 23.7831 529.521 24.0749C528.489 27.2124 528.138 26.0833 528.246 31.9638C528.256 32.4946 526.944 46.899 527.826 50.8683C528.001 51.782 527.801 58.5822 527.736 59.5056C527.432 60.7493 525.663 61.2538 525.921 62.6895C525.767 64.0869 527.177 65.0584 527.058 66.4499C527.046 70.1235 526.572 97.5349 527.185 99.8079C522.994 101.006 526.517 103.398 525.736 107.819C524.295 108.129 522.823 108.344 521.42 108.787C520.223 109.634 520.857 111.333 520.278 112.49C519.55 113.296 518.454 113.586 517.631 114.259C517.171 115.993 517.153 117.836 517.504 119.597C517.756 120.843 517.359 122.301 518.214 123.374C518.521 123.894 519.223 124.314 519.025 125.004C518.302 127.225 517.048 129.165 522.199 131.47C523.333 131.626 524.489 131.556 525.637 131.675C525.825 133.687 525.701 145.726 525.753 164.459C525.806 165.929 525.174 167.32 525.304 168.796C525.648 179.656 523.995 190.743 524.739 200.409C524.91 202.917 524.024 202.52 524 206.791C524.098 227.196 523.296 207.688 523.429 227.957C523.394 234.568 522.737 225.757 522.855 242.744C522.936 244.414 522.099 245.994 522.336 247.67C522.576 249.505 522.098 251.344 522.345 253.179C522.484 254.142 522.391 255.128 522.046 256.041C521.323 257.857 521.873 262.761 521.634 265.956C520.557 271.362 521.473 269.704 521.24 275.237C521.191 276.519 520.431 277.67 520.512 278.972C520.365 282.136 521.486 284.403 516.66 283.57C516.094 277.862 516.979 259.373 516.422 257.049C516.132 256.211 515.191 255.762 514.927 254.924C514.831 253.926 514.892 252.927 514.9 251.929C514.306 251.761 513.718 251.59 513.138 251.41C512.976 247.067 514.002 244 509.88 244.26C508.02 244.371 504.916 243.527 504.7 247.189C502.088 247.221 499.462 247.05 496.865 247.261C495.534 247.899 495.732 249.413 495.734 250.642C494.589 250.642 493.445 250.654 492.305 250.677C492.132 258.494 492.631 258.799 492.418 262.411C491.659 262.359 490.905 262.26 490.151 262.318C489.606 255.363 490.521 260.801 489.659 253.684C487.586 252.298 484.997 253.501 482.795 252.55C481.911 252.603 481.052 253.168 480.125 252.907C479.796 250.928 480.339 239.128 479.911 236.821C475.996 236.197 481.935 235.468 468.507 235.577C468.248 247.275 468.658 243.729 466.348 245.052C465.2 245.328 464.945 246.655 465.021 247.671C465.044 248.195 465.226 257.253 464.751 259.071C460.593 260.331 460.507 256.994 457.806 263.794C456.282 264.252 454.461 263.472 453.168 264.583C451.655 265.601 449.719 264.986 448.032 264.931C447.966 263.644 448.385 262.203 447.635 261.057C447.061 261.216 446.499 261.394 445.93 261.556C445.881 260.634 445.783 259.72 445.71 258.807C439.176 257.046 434.666 258.617 432.985 258.856C432.979 259.477 432.968 260.1 432.953 260.727C432.185 260.605 431.42 260.526 430.649 260.509C430.663 263.907 430.706 267.305 430.634 270.704C398.871 270.538 397.894 270.947 397.192 270.495C396.623 269.573 396.433 269.317 396.639 258.677C396.656 257.491 397.914 256.456 397.285 255.27C396.96 254.47 397.328 253.603 397.047 252.793C395.52 252.828 393.992 252.796 392.467 252.802C391.183 252.762 390.009 253.44 388.728 253.399C386.586 253.399 384.444 253.353 382.304 253.417C383.909 253.706 389.578 253.41 391.354 253.292C389.458 253.858 387.464 253.449 385.528 253.573C383.986 253.582 382.374 253.803 380.907 253.223C381.267 253.121 381.638 253.043 382.009 252.962C380.154 252.736 378.284 252.811 376.423 252.817C376.258 253.063 376.102 253.315 375.945 253.571C376.4 256.174 376.102 258.848 376.145 261.48C374.942 260.808 373.563 261.135 372.302 261.408C371.427 261.692 370.742 262.353 370.07 262.953C369.101 263.788 369.504 265.27 368.702 266.218C368.061 267.07 367.878 268.218 367.098 268.966C364.67 269.213 358.509 269.257 357.263 269.042C356.687 266.177 356.529 266.564 353.202 265.542C351.459 261.863 351.557 261.63 350.704 261.213C342.918 259.845 343.185 259.558 341.709 261.222C341.257 262.698 342.057 264.153 341.976 265.641C341.947 269.48 341.999 273.319 341.95 277.16C341.439 277.154 340.932 277.149 340.434 277.143C340.396 276.569 340.373 276.003 340.347 275.438C322.539 275.384 332.376 275.822 320.662 275.423C320.709 273.721 320.804 272.007 320.532 270.32C320.332 269.05 320.613 267.772 320.483 266.505C320.08 265.409 319.489 264.385 319.234 263.24C316.886 263.214 314.535 263.324 312.193 263.205C310.801 262.698 309.908 261.309 309.395 259.978C305.15 258.921 304.324 260.519 302.922 260.625C301.983 260.265 302.108 259.059 301.913 258.25C301.412 258.155 300.916 258.059 300.42 257.969C299.586 255.756 299.838 253.391 299.797 251.082C298.612 251.051 297.42 251.135 296.243 251.013C295.452 250.511 294.983 249.661 294.267 249.078C292.18 248.386 289.979 249.127 287.843 248.869C286.072 248.643 284.301 248.89 282.533 248.942C282.232 249.76 281.724 250.473 281.339 251.247C280.904 253.619 281.374 256.019 281.121 258.4C280.865 263.262 282.892 267.177 277.011 266.092C277.132 258.808 278.301 261.685 260.99 260.905C260.79 258.297 261.644 251.984 259.291 250.795C257.926 250.583 256.537 250.708 255.173 250.508C255.068 249.734 254.964 248.965 254.862 248.194C253.465 247.811 252.19 247.18 251.091 246.24C238.512 241.685 242.557 246.912 241.487 249.641C240.994 250.56 239.867 250.542 238.977 250.714C238.166 253.088 238.047 255.628 238.331 258.11C238.583 259.719 237.551 261.146 237.604 262.734C237.698 282.581 237.921 282.517 236.647 282.865C235.415 283.213 234.082 283.364 232.835 283.002C231.98 282.686 231.317 283.605 230.467 283.538C224.274 283.655 222.225 282.837 221.995 285.625C221.792 289.603 222.438 293.605 221.934 297.571C220.649 297.139 219.704 295.732 219.815 294.379C219.763 274.675 220.767 237.933 220.423 235.468C220.368 234.494 219.899 233.59 219.939 232.609C219.945 231.49 219.71 230.394 219.524 229.298C217.745 228.606 215.791 229.327 213.953 228.953C212.814 228.338 212.756 226.958 212.55 225.836C211.387 225.491 210.179 225.55 208.985 225.552C207.559 225.61 206.292 224.346 204.866 224.978C204.698 225.724 204.576 226.501 204.211 227.185C203.689 227.733 202.924 227.936 202.269 228.272C200.75 228.922 199.588 230.229 197.947 230.615C196.048 231.53 196.273 229.995 196.013 235.146C195.528 242.167 196.552 240.467 196.15 248.336C196.083 248.728 196.431 248.982 196.643 249.27C196.021 250.179 196.071 250.455 196.107 255.567C196.083 255.976 196.37 256.304 196.532 256.66C196.358 256.95 196.187 257.24 196.017 257.536C196.193 257.817 196.376 258.104 196.559 258.394C195.765 261.766 195.84 265.254 195.863 268.692C196.185 268.84 196.509 268.991 196.837 269.145C196.53 269.429 196.112 269.632 195.929 270.023C196.028 270.369 196.228 270.676 196.408 270.992C195.193 272.854 195.967 278.786 195.761 279.878C195.471 281.867 195.675 283.874 195.686 285.874C192.811 286.066 189.927 285.834 187.051 285.985C186.97 286.066 186.807 286.231 186.727 286.312C186.57 287.429 186.967 288.704 186.115 289.621C184.346 288.921 184.649 288.276 181.381 286.878C181.35 284.251 181.437 281.624 181.353 279C181.109 276.991 181.109 274.958 181.245 272.943C181.277 272.756 181.606 251.561 181.329 247.947C181.242 246.906 180.422 246.103 180.306 245.071C180.062 243.427 180.41 241.78 180.379 240.133C180.379 239.009 180.228 237.892 180.196 236.77C175.469 235.046 167.038 237.066 164.641 235.428C164.575 234.572 164.543 233.711 164.635 232.859C164.841 231.461 164.444 230.075 164.557 228.675C159.453 228.058 160.977 226.681 154.835 227.732C154.863 228.472 154.925 229.208 155.064 229.939C154.027 230.863 155.004 230.802 148.785 230.739C148.663 232.134 148.715 233.534 148.695 234.935C146.938 235.117 145.144 234.793 143.411 235.132C142.666 235.72 142.822 236.915 142.611 237.776C142.057 237.857 141.507 237.938 140.959 238.031C140.842 238.652 141.208 239.087 141.718 239.385C141.46 239.658 141.159 239.898 140.965 240.229C140.959 241.714 141.243 243.201 141.034 244.685C140.189 245.833 138.405 245.299 134.028 245.457C133.997 246.776 134.005 248.095 133.991 249.414C133.422 249.487 132.854 249.571 132.292 249.672C132.283 249.867 132.26 250.255 132.252 250.446C132.849 250.539 133.448 250.643 134.049 250.745C134.017 251.287 134 251.832 133.991 252.38C132.524 252.4 131.058 252.363 129.594 252.426C130.185 263.324 129.365 260.826 128.75 262.534C129.051 265.7 128.239 277.47 128.625 282.18C127.933 282.366 127.211 282.406 126.556 282.076C126.434 281.302 126.031 280.661 125.356 280.267C125.731 263.028 125.107 264.516 125.703 263.632C125.315 262.702 125.547 261.693 125.585 260.724C125.677 257.784 125.327 254.844 125.706 251.91C123.274 251.229 120.738 251.202 118.233 251.194C118.207 250.431 118.193 249.669 118.181 248.909C104.354 248.909 99.6631 248.558 102.128 249.883C100.857 251.871 102.315 251.328 101.519 256.004C101.812 256.325 102.108 256.647 102.401 256.978C101.989 257.021 101.238 256.917 101.305 257.546C101.598 260.785 101.119 274.131 101.464 277.245C101.667 278.752 101.07 280.202 101.004 281.698L100.96 296.871C101.728 296.88 102.499 296.897 103.264 296.996C101.554 297.723 99.7046 297.051 97.9219 297.121C97.7714 296.793 97.6237 296.466 97.4753 296.144C92.1242 298.426 91.8553 296.379 89.5563 296.506C88.843 296.454 88.0551 296.7 87.411 296.3C85.0488 294.703 84.636 297.739 79.3732 296.433C79.3732 296.433 79.5629 290.805 79.5995 283.809C73.7046 282.69 67.4303 283.366 64.1235 282.98C63.1845 277.744 64.0711 261.484 64.0624 261.435C64.2843 255.518 63.5449 253.985 64.3378 252.423C62.674 252.475 61.0507 252.104 59.4245 251.826C57.6097 251.8 55.784 251.881 54.0128 251.4C52.2389 251.487 50.459 251.417 48.6851 251.501C45.8473 252.035 42.9485 251.724 40.079 251.797C40.6865 253.942 40.2437 265.305 40.2208 265.595C40.0927 266.945 41.2874 269.641 38.809 270.093C36.9424 269.994 35.0671 270.128 33.2086 269.881C31.739 269.696 30.2809 269.994 28.8145 270.009C28.4939 266.108 29.542 246.654 29.4814 244.494C29.5512 243.859 28.971 243.415 28.3886 243.381C24.4667 242.688 20.4407 243.546 16.5275 242.772C13.9624 243.126 11.3651 242.769 8.79991 243.091C8.79991 243.092 7.72183 299.78 7.72183 299.78C7.70111 299.785 7.68038 299.791 7.65966 299.796V300.342H0.0220174C-0.00906545 335.561 -0.00415732 370.78 0.0176552 406H1395.99C1396 399.519 1396.01 282.998 1395.98 260.964ZM39.8604 294.175C38.9442 294.514 38.0254 294.036 37.1065 293.986C34.2949 293.768 31.4745 293.841 28.6596 293.887C28.3008 292.579 28.7976 276.747 28.9148 276.261C29.3506 275.643 29.7143 276.079 38.2806 275.951C38.8052 275.916 39.3183 276.029 39.8053 276.215C40.121 280.834 39.6662 286.112 39.8604 294.175ZM1268.52 279.985C1270.01 280.034 1271.54 279.77 1273.02 279.97L1273.22 280.225C1271.65 280.103 1270.07 280.086 1268.52 279.985Z" fill="#2A2D48"/>
</svg>
